<svg width="7990" height="12892" viewBox="0 0 7990 12892" fill="none" xmlns="http://www.w3.org/2000/svg">
<path fill-rule="evenodd" clip-rule="evenodd" d="M4695 4365.51C4653.96 4296.07 4637.89 4222.87 4722.87 4133.8C4723.56 4039.44 4756.56 3994.05 4796.91 3958.22C4840.86 3779.73 4944.82 3686.23 5081.96 3638.62C5229.19 3496.83 5383.08 3412.02 5550.14 3438.3C5611.02 3400.25 5665.22 3386.43 5708.48 3403.32C5696 3187.47 5667.44 2946.2 5578.01 2606.13C5560.4 2593.68 5543.65 2579.17 5542.79 2509.73L5545.01 2363.5C5544.33 2312.31 5570.66 2272.72 5508.42 2197.47C5449.09 2116.25 5384.45 2035.03 5410.27 1936.4L3078.43 1248.25C3104.07 1337.49 3070.39 1420.24 3033.11 1488.84L3017.04 1689.16L3003.02 1720.73C3356.29 2453.42 3716.75 2441.64 3806.86 2913.95C3885.35 3014.97 3963.66 3115.81 3975.46 3217.5C4179.97 3602.11 4367.55 4070.15 4555.81 4538.02C4557.18 4460.55 4609.33 4405.78 4695 4365.51ZM5161.82 5350.4V5065.95C5096.5 5131.14 5011.51 5142.74 4925.84 5152.29C5005.01 5243.75 5083.33 5296.31 5161.82 5350.4ZM6556.27 5130.28C6540.71 5206.38 6525.32 5234.88 6509.93 5250.75C6498.65 5262.52 6487.19 5267.47 6475.73 5279.59L6436.06 5498.85C6381.17 5714.7 6579.01 5904.78 6723.33 6099.98C7363.02 6555.57 7444.41 7117.11 7151.33 7516.39L7162.96 7690.44L7129.27 7678.66C7310.18 8439.17 6880.99 8735.21 7027.53 9797.05C7050.1 9908.13 7009.06 9954.88 6976.92 10010.5C6942.38 10270 6894.84 10417.1 6830.38 10409.8C6785.57 10775.3 6385.45 11357.5 6318.08 11347.9C5897.43 11696 5476.1 12046.3 5123.68 12025C4947.73 12014.1 4789.56 11911 4656.87 11668.2C4025.9 12213.7 3294.73 12522.2 2630.08 12820.6C2282.79 12947.9 1985.94 12909 1757.33 12651.7C1574.88 12528.2 1609.24 12230.4 1667.21 11915.3C1662.77 11539.5 1673.03 11160.7 1796.14 10752.8C1914.81 10306.6 1993.3 9813.77 2022.54 9264.68C1935.33 9224.41 1929.52 9166.74 1955.85 9103.09C1822.47 9155.82 1791.01 9057.02 1782.97 8922.39C1782.29 8752.79 1816.66 8678.22 1876.68 8670.88V8558.27C1853.25 8431.83 1876 8447.19 1890.02 8435.41L1847.44 8333.89C1764.68 8227.07 1722.96 8116.67 1752.2 8000.47C1767.59 7861.41 1928.83 7852.71 2044.6 7996.72L3065.26 9046.78C3164.95 9152.06 3123.91 9206.84 2991.39 9229.53C2875.46 9375.08 2728.23 9454.08 2565.61 9496.4C2566.3 10207.9 2613.15 10363.7 2657.1 10550C2810.31 10897.5 2713.52 11153.4 2649.91 11420.9C2953.94 11124.9 3247.71 10881.4 3533.61 10686.9V10630.6C3575.33 10576.5 3617.91 10540 3659.63 10532.6C3763.6 10517.3 3839.18 10258.4 3927.07 10289.8C3982.81 10161.2 4038.39 10088.8 4094.13 10061.7C3998.89 9746.54 3892.7 9480.36 3752.65 9347.27C3663.22 9288.74 3598.76 9221.51 3588.5 9134.49C3557.72 9133.81 3526.94 9122.89 3495.48 9089.27C3475.64 9123.57 3455.98 9080.4 3435.29 9050.37C3394.25 9046.1 3372.36 9016.75 3351.16 8986.89L3241.9 8832.47C3228.73 8810.63 3234.54 8803.98 3241.9 8797.49L3175.21 8676L3192.82 8660.65L3263.1 8779.92C3324.83 8783.5 3354.75 8858.92 3391.34 8918.81C3343.81 8743.4 3237.62 8613.21 3125.45 8485.24C3046.96 8409.13 2972.24 8329.45 2924.7 8203.69C2868.27 8105.75 3030.21 8053.03 3294.05 7993.14C3488.13 7940.41 3748.21 8006.96 3779.84 8175.88C3814.9 8293.62 3876.45 8341.22 3941.77 8379.96C4095.67 8472.1 4080.96 8564.24 4061.13 8657.06C4091.91 8769 4063.35 8860.97 4033.26 8951.74C4135.17 9216.39 4287.52 9356.82 4423.98 9538.2C4539.74 9409.38 4656.19 9370.64 4771.95 9348.8L4870.78 9243.52L4881.21 9247.11C5113.42 8998.5 5065.72 8603.65 4902.42 8147.39H4881.21L4832.14 7951.33C4766.14 7832.23 4724.24 7702.72 4705.26 7564.51C4424.66 7273.58 4308.9 6910.82 4324.97 6490.38C4327.19 6420.26 4296.42 6340.57 4233.32 6251.33C4037.02 5864.51 3852.34 5435.2 3740.86 4867.85C3684.43 4503.04 3636.89 4142.5 3533.61 3754.14C3493.26 3619 3424.35 3483.01 3329.1 3346.84C3145.97 3104.21 2982.5 2789.05 2836.64 2416.05C2753.19 2204.81 2668.89 1992.71 2565.61 1780.62L2526.8 1759.46L2487.98 1671.75C2432.24 1733.86 2321.61 1550.27 2421.3 1447.2C2373.59 1389.53 2345.03 1325.03 2325.88 1257.12C2254.92 1146.72 2248.25 1071.3 2262.96 1007.83L133.567 358.406C-102.405 284.522 24.3019 -38.6529 133.567 3.83435L2416.85 719.633L2436.68 690.454C2453.44 643.701 2479.09 626.126 2510.55 631.245L2609.56 639.948C2648.38 598.996 2723.1 612.817 2847.75 701.375C2975.14 743.009 3026.44 826.447 3051.41 925.072L5621.96 1711.85L5729 1649.74C5813.99 1602.99 5872.64 1591.9 5901.88 1619.03C5978.83 1611.01 6007.38 1649.06 6023.63 1698.72C6082.11 1718.51 6119.55 1745.47 6123.14 1782.84C6184.7 1782.15 6175.13 1834.03 6173.07 1875.66L7932.43 2421.85C8024.08 2500.85 7992.45 2633.95 7932.43 2658.86L6052.18 2122.91C6063.81 2231.09 6040.38 2311.45 6005.16 2380.9L6016.96 2458.54C6019.86 2523.55 6012.51 2568.08 6001.57 2604.77C6097.49 2862.93 6198.72 3070.59 6302.69 3254.02C6446.32 3487.27 6460.34 3599.21 6471.29 3708.92C6473.51 3861.64 6499.84 3975.79 6539.34 4068.61C6590.81 4130.72 6589.27 4186.35 6579.01 4240.44C6546.01 4318.76 6551.14 4385.31 6564.31 4448.1C6677.16 4615.66 6651 4789.53 6612.7 4965.11C6609.62 4979.44 6556.27 5130.28 6556.27 5130.28" fill="white"/>
</svg>
